<?xml version="1.0" standalone="no"?>
<!DOCTYPE svg PUBLIC "-//W3C//DTD SVG 20010904//EN"
 "http://www.w3.org/TR/2001/REC-SVG-20010904/DTD/svg10.dtd">
<svg version="1.0" xmlns="http://www.w3.org/2000/svg"
 width="300.000000pt" height="226.000000pt" viewBox="0 0 300.000000 226.000000"
 preserveAspectRatio="xMidYMid meet">
<metadata>
Created by potrace 1.10, written by Peter Selinger 2001-2011
</metadata>
<g transform="translate(0.000000,226.000000) scale(0.100000,-0.100000)"
fill="#000000" stroke="none">
<path d="M409 2253 c0 -4 0 -27 1 -50 1 -37 -1 -43 -19 -43 -13 0 -21 -6 -21
-16 0 -12 -7 -15 -30 -12 -28 4 -30 3 -30 -29 0 -29 -3 -33 -25 -33 l-25 0 0
-310 0 -310 -55 0 -55 0 0 -330 0 -330 -75 0 c-60 0 -75 -3 -75 -15 0 -12 15
-15 73 -15 113 0 107 -21 107 348 l1 312 34 0 c58 0 69 23 67 129 -1 41 0 42
14 22 17 -23 53 -28 72 -9 16 16 16 100 0 116 -24 24 -58 14 -73 -20 -14 -32
-14 -31 -14 43 1 86 9 109 29 84 7 -8 20 -15 30 -15 38 0 43 22 40 190 -1 19
-6 40 -12 47 -13 16 -50 17 -66 1 -9 -9 -12 -8 -12 6 0 10 11 27 25 38 14 11
25 25 25 33 0 11 81 65 99 65 3 0 17 -10 31 -22 14 -13 32 -23 40 -23 8 0 16
-9 18 -20 2 -11 15 -30 30 -42 20 -17 24 -25 15 -34 -8 -8 -13 -8 -17 0 -10
15 -51 14 -64 -2 -18 -21 -22 -70 -9 -97 14 -29 32 -32 64 -13 12 7 24 13 27
13 9 0 6 -349 -3 -354 -5 -3 -14 1 -21 9 -16 19 -44 19 -59 1 -16 -19 -16
-203 0 -222 14 -18 53 -18 67 -1 6 7 11 52 11 101 -1 48 2 90 5 93 3 4 6 -14
6 -39 0 -53 21 -78 68 -78 l32 0 0 -72 c0 -40 4 -80 10 -88 6 -9 33 -16 76
-20 56 -5 71 -3 90 13 23 18 24 23 24 173 l0 154 34 0 c46 0 58 19 60 94 2 55
5 67 26 84 26 21 26 25 30 193 0 15 15 17 109 17 120 0 116 3 120 -68 3 -55
13 -68 54 -72 l32 -3 3 -110 c2 -60 8 -115 14 -122 7 -9 38 -13 89 -13 l79 0
1 -27 c0 -16 0 -82 0 -148 -1 -156 5 -165 95 -165 41 0 63 -4 59 -10 -3 -5 -2
-10 3 -10 4 0 16 -33 26 -74 26 -111 21 -108 164 -107 67 1 127 2 133 4 6 1
13 -11 14 -26 2 -16 9 -35 16 -43 14 -17 51 -18 67 -2 16 16 15 93 0 105 -21
16 -57 22 -62 9 -2 -6 -5 3 -5 19 l-1 30 67 3 c38 2 73 8 79 13 7 6 20 2 37
-11 30 -23 84 -26 113 -5 l21 14 0 -276 c0 -275 1 -277 23 -295 32 -26 150
-26 173 0 10 10 17 27 17 37 0 13 3 15 13 7 9 -8 20 -7 37 1 20 10 26 21 28
54 4 59 -12 86 -49 81 l-29 -5 0 110 c0 95 2 108 15 97 15 -12 55 -5 55 11 0
5 4 9 8 9 5 0 6 -26 4 -58 -4 -54 -2 -58 23 -72 21 -11 30 -12 45 -2 28 17 28
17 22 -33 -3 -35 0 -50 13 -65 21 -24 48 -26 65 -5 17 21 31 9 20 -19 -5 -13
-5 -40 0 -60 9 -40 -1 -54 -20 -31 -16 19 -44 19 -59 1 -10 -12 -16 -12 -41 2
-27 16 -30 15 -49 -2 -32 -29 -29 -100 4 -122 24 -15 27 -15 44 0 26 24 29 21
23 -34 -5 -59 8 -80 49 -80 37 0 53 30 46 86 -5 46 2 54 23 29 16 -20 26 -19
49 4 18 18 19 37 19 293 0 400 -4 355 37 350 21 -3 35 0 35 7 0 6 -11 11 -25
11 l-25 0 0 410 0 410 -85 0 -85 0 0 -100 c0 -100 0 -100 -25 -100 l-25 0 0
-125 0 -125 -35 0 -35 0 0 -180 0 -180 -60 0 -61 0 3 -300 3 -300 -82 0 -83 0
0 365 c0 318 2 365 15 365 8 0 15 5 15 10 0 6 -6 10 -13 10 -15 0 -25 73 -48
325 -12 124 -29 191 -29 112 0 -37 -1 -37 -40 -37 -39 0 -40 1 -40 37 0 83
-13 13 -31 -164 -26 -260 -28 -273 -45 -273 -8 0 -14 -4 -14 -10 0 -5 7 -10
15 -10 12 0 15 -16 15 -81 l0 -80 -85 3 -85 3 0 -52 0 -53 -124 0 -124 0 -6
28 c-4 15 -16 62 -28 105 l-21 79 -73 -7 -74 -6 0 176 0 176 -90 -3 -90 -3 0
128 0 127 -50 0 -50 0 0 68 0 67 -140 -3 -140 -3 0 -109 0 -109 -27 2 -26 2
-1 -85 -1 -84 -47 3 -48 3 0 -175 0 -174 -70 -2 -70 -1 0 95 0 95 -52 0 -53 0
3 310 3 310 -31 0 c-27 0 -30 3 -30 33 0 32 -2 33 -30 29 -23 -3 -30 0 -30 12
0 9 -8 16 -17 16 -15 0 -18 9 -18 47 0 42 -3 48 -22 51 -13 2 -23 0 -24 -5z
m-49 -299 c0 -39 -2 -44 -23 -44 -21 0 -23 4 -21 43 2 23 3 42 3 42 1 1 10 1
21 2 17 2 20 -4 20 -43z m184 -2 c1 -37 -2 -42 -21 -42 -20 0 -23 5 -23 45 0
40 2 45 21 42 18 -3 22 -11 23 -45z m33 -14 c-2 -13 -4 -5 -4 17 -1 22 1 32 4
23 2 -10 2 -28 0 -40z m2343 -141 c0 -133 -3 -168 -12 -159 -17 17 -43 15 -58
-3 -12 -14 -15 -14 -31 1 -10 9 -27 14 -39 11 -22 -6 -24 2 -20 77 1 28 9 45
26 58 22 18 24 27 24 103 l0 84 28 3 c15 2 39 1 55 -1 l27 -3 0 -171z m-2560
43 c0 -35 -3 -40 -22 -40 -20 0 -23 5 -23 40 0 35 3 40 23 40 19 0 22 -5 22
-40z m1956 -145 c4 -31 24 -213 31 -280 3 -33 10 -65 14 -71 10 -12 2 -44 -10
-44 -4 0 -12 5 -18 11 -10 10 -75 9 -113 -2 -18 -5 -18 -11 4 206 22 214 20
207 58 203 22 -2 32 -9 34 -23z m-1956 -79 c0 -39 -2 -43 -22 -39 -19 4 -23
11 -23 44 -1 34 2 39 22 39 20 0 23 -5 23 -44z m2450 -41 c0 -38 -3 -45 -20
-45 -17 0 -20 7 -20 45 0 38 3 45 20 45 17 0 20 -7 20 -45z m94 3 c-1 -36 -5
-44 -23 -46 -19 -3 -21 1 -21 42 0 41 2 46 23 46 19 0 22 -5 21 -42z m-2360
-70 c-1 -35 -5 -42 -23 -43 -18 -1 -21 4 -21 42 0 38 3 43 23 43 19 0 22 -5
21 -42z m2198 -28 c-5 -56 8 -80 42 -80 43 1 59 25 54 80 -5 47 3 63 18 39 3
-6 19 -9 35 -7 28 4 28 4 28 -49 -1 -39 -4 -51 -13 -45 -13 11 -47 0 -64 -20
-12 -15 -11 -58 3 -90 8 -21 -7 -23 -34 -6 -15 9 -26 9 -45 0 -24 -11 -24 -14
-24 -112 0 -95 1 -102 24 -117 22 -14 26 -14 50 1 l25 17 -6 -39 c-3 -22 -1
-51 4 -66 12 -29 3 -33 -29 -14 -16 10 -24 10 -40 0 -32 -19 -40 -15 -29 16
16 48 3 87 -35 102 -14 5 -26 3 -38 -7 -14 -13 -20 -13 -33 -3 -8 7 -26 10
-40 8 -23 -5 -25 -2 -25 33 0 22 3 39 8 40 4 0 24 2 45 3 27 1 42 8 50 21 14
26 14 16 15 186 2 141 3 146 25 156 31 15 35 10 29 -47z m68 -15 c0 -38 -3
-45 -20 -45 -17 0 -20 7 -20 45 0 38 3 45 20 45 17 0 20 -7 20 -45z m-2266
-67 c-1 -36 -5 -44 -23 -46 -19 -3 -21 1 -21 42 0 41 2 46 23 46 19 0 22 -5
21 -42z m2361 -43 c0 -40 -2 -45 -22 -45 -20 0 -23 5 -23 45 0 40 3 45 23 45
20 0 22 -5 22 -45z m-570 -80 c36 -35 33 -76 -7 -110 -23 -20 -38 -25 -57 -20
-72 18 -90 98 -32 142 26 20 70 15 96 -12z m475 -30 c0 -38 -3 -45 -20 -45
-17 0 -20 7 -20 45 0 38 3 45 20 45 17 0 20 -7 20 -45z m92 0 c3 -41 1 -45
-19 -45 -21 0 -23 5 -23 45 0 38 3 45 19 45 15 0 20 -9 23 -45z m-57 -55 c3
-5 1 -10 -4 -10 -6 0 -11 5 -11 10 0 6 2 10 4 10 3 0 8 -4 11 -10z m-35 -55
c0 -38 -3 -45 -20 -45 -17 0 -20 7 -20 45 0 38 3 45 20 45 17 0 20 -7 20 -45z
m94 -3 c1 -37 -2 -42 -21 -42 -21 0 -23 5 -23 46 0 41 2 45 21 42 18 -2 22
-10 23 -46z m-809 -107 c0 -40 -2 -45 -22 -45 -20 0 -23 5 -23 45 0 40 3 45
23 45 20 0 22 -5 22 -45z m535 -1 c0 -40 -2 -44 -25 -44 -23 0 -25 4 -25 44 0
40 2 44 25 44 23 0 25 -4 25 -44z m90 -1 c0 -38 -3 -43 -22 -43 -21 0 -23 5
-21 42 1 24 2 43 2 43 1 1 10 1 21 1 17 0 20 -7 20 -43z m184 -1 c1 -37 -2
-42 -21 -42 -20 0 -23 5 -23 43 0 38 3 43 21 42 18 -1 22 -8 23 -43z m-94
-107 c0 -38 -3 -45 -20 -45 -17 0 -20 7 -20 39 0 29 5 41 18 44 9 3 18 5 20 6
1 0 2 -19 2 -44z m-90 -5 c0 -35 -3 -40 -22 -40 -20 0 -23 5 -23 40 0 35 3 40
23 40 19 0 22 -5 22 -40z m185 0 c0 -35 -3 -40 -22 -40 -20 0 -23 5 -23 40 0
35 3 40 23 40 19 0 22 -5 22 -40z m-55 -54 c0 -3 -4 -8 -10 -11 -5 -3 -10 -1
-10 4 0 6 5 11 10 11 6 0 10 -2 10 -4z m-40 -56 c0 -33 -3 -40 -20 -40 -17 0
-20 7 -20 40 0 33 3 40 20 40 17 0 20 -7 20 -40z m95 0 c0 -35 -3 -40 -22 -40
-20 0 -23 5 -23 40 0 35 3 40 23 40 19 0 22 -5 22 -40z m-275 -110 c0 -36 -2
-40 -25 -40 -22 0 -25 4 -25 40 0 36 3 40 25 40 23 0 25 -4 25 -40z m275 0 c0
-35 -3 -40 -22 -40 -20 0 -23 5 -23 40 0 35 3 40 23 40 19 0 22 -5 22 -40z
m-185 -115 c0 -40 -2 -45 -21 -42 -18 3 -22 11 -23 45 -1 37 2 42 22 42 19 0
22 -5 22 -45z m90 2 c0 -36 -3 -43 -20 -43 -17 0 -20 7 -20 43 0 36 3 43 20
43 17 0 20 -7 20 -43z m94 1 c-1 -34 -5 -42 -23 -45 -19 -3 -21 2 -21 42 0 40
3 45 23 45 19 0 22 -5 21 -42z m-94 -113 c0 -38 -3 -45 -20 -45 -17 0 -20 7
-20 45 0 38 3 45 20 45 17 0 20 -7 20 -45z"/>
<path d="M2282 1258 c-2 -33 -5 -38 -27 -38 -14 0 -25 -4 -25 -10 0 -15 50
-12 56 4 3 8 4 29 1 48 l-4 33 -1 -37z"/>
<path d="M966 1568 c-8 -12 -13 -25 -10 -30 3 -5 6 -67 5 -137 0 -111 2 -131
17 -145 16 -14 20 -14 39 -1 20 14 21 24 21 163 0 86 -4 152 -10 160 -16 19
-45 14 -62 -10z m45 -11 c-1 -4 -1 -23 -1 -42 0 -24 -5 -35 -15 -35 -11 0 -15
11 -15 38 0 21 3 42 7 46 8 8 25 3 24 -7z m4 -137 c0 -31 -4 -40 -17 -40 -14
0 -18 9 -18 40 0 31 4 40 18 40 13 0 17 -9 17 -40z m-3 -110 c-3 -26 -9 -40
-18 -40 -10 0 -14 12 -14 40 0 32 4 40 18 40 14 0 17 -7 14 -40z"/>
<path d="M1316 1574 c-33 -33 -13 -114 28 -114 27 0 36 17 36 69 0 56 -31 78
-64 45z m44 -49 c0 -33 -4 -45 -15 -45 -11 0 -15 12 -15 45 0 33 4 45 15 45
11 0 15 -12 15 -45z"/>
<path d="M305 1450 c-8 -9 -15 -35 -15 -58 0 -36 4 -44 29 -56 26 -14 30 -14
45 3 19 21 22 97 3 115 -17 18 -44 16 -62 -4z m55 -55 c0 -40 -2 -45 -22 -45
-20 0 -23 5 -23 45 0 40 3 45 23 45 20 0 22 -5 22 -45z"/>
<path d="M410 1347 c-24 -12 -25 -17 -27 -114 -2 -103 1 -112 39 -126 39 -14
73 67 48 113 -7 13 -7 21 1 25 6 4 9 25 7 47 -4 52 -31 73 -68 55z m40 -62 c0
-38 -3 -45 -20 -45 -17 0 -20 7 -20 45 0 38 3 45 20 45 17 0 20 -7 20 -45z m0
-110 c0 -38 -3 -45 -20 -45 -17 0 -20 7 -20 45 0 38 3 45 20 45 17 0 20 -7 20
-45z"/>
<path d="M212 1338 c-16 -16 -16 -90 0 -106 7 -7 21 -12 33 -12 32 0 45 19 45
65 0 46 -13 65 -45 65 -12 0 -26 -5 -33 -12z m58 -53 c0 -41 -2 -45 -25 -45
-23 0 -25 4 -25 45 0 41 2 45 25 45 23 0 25 -4 25 -45z"/>
<path d="M581 1336 c-7 -8 -10 -51 -9 -120 2 -58 1 -106 -3 -106 -3 0 -10 5
-16 11 -6 6 -21 9 -34 7 -51 -7 -61 -112 -11 -125 14 -3 34 0 45 6 14 9 22 10
30 2 15 -15 52 -14 65 2 6 7 10 73 10 162 0 89 -4 155 -10 163 -14 16 -53 15
-67 -2z m59 -51 c0 -41 -2 -45 -25 -45 -23 0 -25 4 -25 45 0 41 2 45 25 45 23
0 25 -4 25 -45z m0 -110 c0 -41 -2 -45 -25 -45 -23 0 -25 4 -25 45 0 41 2 45
25 45 23 0 25 -4 25 -45z m-95 -110 c0 -40 -3 -45 -22 -45 -21 0 -23 5 -23 45
0 40 2 45 23 45 20 0 23 -5 22 -45z m95 0 c0 -41 -2 -45 -25 -45 -23 0 -25 4
-25 45 0 41 2 45 25 45 23 0 25 -4 25 -45z"/>
<path d="M972 1157 c-7 -8 -10 -103 -9 -266 2 -230 4 -255 20 -265 32 -20 52
5 52 63 -1 34 3 47 9 41 31 -31 66 3 66 63 0 41 -21 62 -52 54 l-23 -6 2 149
c2 122 -1 152 -13 165 -19 18 -38 19 -52 2z m40 -57 c-3 -26 -9 -40 -18 -40
-10 0 -14 12 -14 40 0 32 4 40 18 40 14 0 17 -7 14 -40z m3 -100 c0 -31 -4
-40 -17 -40 -14 0 -18 9 -18 40 0 31 4 40 18 40 13 0 17 -9 17 -40z m-3 -110
c-3 -26 -9 -40 -18 -40 -10 0 -14 12 -14 40 0 32 4 40 18 40 14 0 17 -7 14
-40z m3 -100 c0 -31 -4 -40 -17 -40 -14 0 -18 9 -18 40 0 31 4 40 18 40 13 0
17 -9 17 -40z m65 0 c0 -29 -4 -40 -15 -40 -11 0 -15 11 -15 40 0 29 4 40 15
40 11 0 15 -11 15 -40z m-65 -110 c0 -31 -4 -40 -17 -40 -14 0 -18 9 -18 40 0
31 4 40 18 40 13 0 17 -9 17 -40z"/>
<path d="M211 1116 c-7 -8 -11 -34 -9 -58 2 -34 8 -45 28 -55 20 -10 27 -9 42
4 21 19 25 92 6 111 -16 16 -53 15 -67 -2z m59 -51 c0 -41 -2 -45 -25 -45 -23
0 -25 4 -25 45 0 41 2 45 25 45 23 0 25 -4 25 -45z"/>
<path d="M1581 1084 c-17 -13 -21 -23 -17 -59 5 -56 11 -65 45 -65 37 0 51 17
51 60 0 59 -40 91 -79 64z m49 -59 c0 -38 -3 -45 -20 -45 -17 0 -20 7 -20 45
0 38 3 45 20 45 17 0 20 -7 20 -45z"/>
<path d="M1762 968 c-7 -7 -12 -31 -12 -54 0 -33 5 -47 22 -58 19 -13 25 -14
43 -2 23 16 33 89 14 112 -14 17 -51 18 -67 2z m58 -53 c0 -41 -2 -45 -25 -45
-23 0 -25 4 -25 45 0 41 2 45 25 45 23 0 25 -4 25 -45z"/>
<path d="M1946 964 c-18 -18 -22 -89 -5 -100 8 -4 8 -9 0 -17 -6 -6 -11 -27
-11 -47 0 -62 55 -93 84 -47 17 26 20 195 4 214 -14 18 -53 16 -72 -3z m54
-49 c0 -38 -3 -45 -20 -45 -17 0 -20 7 -20 45 0 38 3 45 20 45 17 0 20 -7 20
-45z m0 -110 c0 -38 -3 -45 -20 -45 -17 0 -20 7 -20 45 0 38 3 45 20 45 17 0
20 -7 20 -45z"/>
<path d="M212 898 c-20 -20 -15 -92 9 -114 23 -21 25 -20 52 3 20 19 24 92 5
111 -7 7 -21 12 -33 12 -12 0 -26 -5 -33 -12z m58 -54 c0 -40 -2 -44 -25 -44
-23 0 -25 4 -25 44 0 40 2 44 25 44 23 0 25 -4 25 -44z"/>
<path d="M396 894 c-22 -22 -21 -87 2 -107 23 -21 46 -22 61 -3 10 12 16 12
41 -2 27 -16 30 -15 49 2 15 14 21 31 21 61 0 61 -32 82 -81 53 -17 -10 -23
-10 -26 0 -7 17 -49 15 -67 -4z m54 -51 c0 -36 -3 -43 -20 -43 -17 0 -20 7
-20 43 0 36 3 43 20 43 17 0 20 -7 20 -43z m94 -1 c1 -37 -2 -42 -21 -42 -20
0 -23 5 -23 45 0 40 2 45 21 42 18 -3 22 -11 23 -45z"/>
<path d="M1180 835 c-7 -8 -11 -34 -8 -60 3 -43 -1 -53 -16 -38 -12 13 -35 11
-47 -3 -7 -9 -10 -34 -7 -63 5 -46 4 -48 -14 -38 -30 19 -53 -3 -56 -55 -4
-54 17 -80 49 -60 15 9 23 9 38 0 32 -20 53 6 50 61 -3 48 1 54 26 45 33 -13
44 14 44 109 0 50 -5 97 -11 104 -14 17 -33 16 -48 -2z m40 -45 c0 -29 -4 -40
-15 -40 -11 0 -15 11 -15 40 0 29 4 40 15 40 11 0 15 -11 15 -40z m-70 -110
c0 -29 -4 -40 -15 -40 -11 0 -15 11 -15 40 0 29 4 40 15 40 11 0 15 -11 15
-40z m70 0 c0 -29 -4 -40 -15 -40 -11 0 -15 11 -15 40 0 29 4 40 15 40 11 0
15 -11 15 -40z m-140 -105 c0 -35 -3 -43 -15 -39 -10 4 -15 20 -15 45 0 28 4
39 15 39 11 0 15 -12 15 -45z m70 0 c0 -35 -3 -43 -15 -39 -10 4 -15 20 -15
45 0 28 4 39 15 39 11 0 15 -12 15 -45z"/>
<path d="M1312 837 c-6 -7 -10 -53 -9 -106 2 -77 5 -96 20 -105 12 -8 22 -8
35 0 14 9 17 28 19 104 2 57 -2 99 -8 107 -14 17 -43 17 -57 0z m48 -47 c0
-29 -4 -40 -15 -40 -11 0 -15 11 -15 40 0 29 4 40 15 40 11 0 15 -11 15 -40z
m0 -110 c0 -29 -4 -40 -15 -40 -11 0 -15 11 -15 40 0 29 4 40 15 40 11 0 15
-11 15 -40z"/>
<path d="M1762 748 c-19 -19 -15 -92 6 -111 24 -22 35 -21 55 1 20 22 23 92 5
110 -7 7 -21 12 -33 12 -12 0 -26 -5 -33 -12z m58 -53 c0 -41 -2 -45 -25 -45
-22 0 -25 4 -25 39 0 33 4 40 23 44 12 2 23 5 25 6 1 0 2 -19 2 -44z"/>
<path d="M2032 732 c-10 -30 -6 -79 10 -99 11 -13 43 -9 64 8 17 14 19 90 2
107 -7 7 -24 12 -39 12 -21 0 -29 -7 -37 -28z m62 -40 c1 -37 -2 -42 -21 -42
-20 0 -23 5 -23 43 0 38 3 43 21 42 18 -1 22 -8 23 -43z"/>
<path d="M1576 634 c-22 -22 -21 -87 2 -107 39 -35 82 -6 82 56 0 39 -21 67
-50 67 -10 0 -26 -7 -34 -16z m54 -54 c0 -33 -3 -40 -20 -40 -17 0 -20 7 -20
40 0 33 3 40 20 40 17 0 20 -7 20 -40z"/>
<path d="M1853 635 c-20 -22 -16 -89 5 -108 38 -35 71 -14 76 49 5 61 -47 99
-81 59z m57 -55 c0 -35 -3 -40 -22 -40 -20 0 -23 5 -23 40 0 35 3 40 23 40 19
0 22 -5 22 -40z"/>
<path d="M1247 622 c-23 -26 -21 -75 4 -98 30 -27 53 -8 57 45 5 64 -27 91
-61 53z m43 -45 c0 -32 -4 -44 -15 -44 -11 0 -15 12 -15 44 0 32 4 43 15 43
11 0 15 -11 15 -43z"/>
<path d="M971 517 c-28 -53 5 -127 47 -101 24 15 28 81 6 105 -23 25 -38 24
-53 -4z m44 -47 c0 -31 -4 -40 -17 -40 -14 0 -18 9 -18 40 0 31 4 40 18 40 13
0 17 -9 17 -40z"/>
<path d="M1317 522 c-31 -34 -15 -112 21 -112 29 0 42 21 42 65 0 61 -30 83
-63 47z m43 -52 c0 -29 -4 -40 -15 -40 -11 0 -15 11 -15 40 0 29 4 40 15 40
11 0 15 -11 15 -40z"/>
<path d="M1762 528 c-7 -7 -12 -33 -12 -58 0 -50 13 -70 45 -70 32 0 45 20 45
70 0 50 -13 70 -45 70 -12 0 -26 -5 -33 -12z m58 -58 c0 -36 -2 -40 -25 -40
-22 0 -25 4 -25 40 0 36 3 40 25 40 23 0 25 -4 25 -40z"/>
<path d="M2046 527 c-13 -10 -18 -26 -18 -56 1 -49 15 -71 46 -71 32 0 46 19
46 63 0 69 -31 95 -74 64z m49 -57 c0 -35 -3 -40 -22 -40 -20 0 -23 5 -23 40
0 35 3 40 23 40 19 0 22 -5 22 -40z"/>
<path d="M2590 533 c-23 -9 -30 -24 -30 -69 0 -45 14 -64 46 -64 26 0 41 17
44 50 4 43 0 58 -16 74 -16 17 -20 18 -44 9z m40 -68 c0 -41 -2 -45 -25 -45
-23 0 -25 4 -25 45 0 41 2 45 25 45 23 0 25 -4 25 -45z"/>
<path d="M1946 408 c-33 -46 -12 -118 34 -118 30 0 50 28 50 69 0 63 -53 94
-84 49z m54 -51 c0 -36 -3 -43 -20 -43 -17 0 -20 7 -20 43 0 36 3 43 20 43 17
0 20 -7 20 -43z"/>
<path d="M1945 190 c-13 -15 -16 -30 -12 -61 6 -45 19 -59 54 -59 27 0 43 27
43 73 0 58 -50 86 -85 47z m55 -55 c0 -38 -3 -45 -20 -45 -17 0 -20 7 -20 45
0 38 3 45 20 45 17 0 20 -7 20 -45z"/>
</g>
</svg>
